<?xml version="1.0" encoding="UTF-8"?>
<svg width="512" height="512" viewBox="0 0 512 512" fill="none" xmlns="http://www.w3.org/2000/svg">
  <rect width="512" height="512" fill="#1E40AF"/>
  <path d="M256 128C178.88 128 116 190.88 116 268C116 345.12 178.88 408 256 408C333.12 408 396 345.12 396 268C396 190.88 333.12 128 256 128ZM256 368C200.96 368 156 323.04 156 268C156 212.96 200.96 168 256 168C311.04 168 356 212.96 356 268C356 323.04 311.04 368 256 368Z" fill="white"/>
  <path d="M256 208C222.88 208 196 234.88 196 268C196 301.12 222.88 328 256 328C289.12 328 316 301.12 316 268C316 234.88 289.12 208 256 208Z" fill="white"/>
</svg>